<?xml version="1.0" standalone="no"?>
<!DOCTYPE svg PUBLIC "-//W3C//DTD SVG 20010904//EN"
 "http://www.w3.org/TR/2001/REC-SVG-20010904/DTD/svg10.dtd">
<svg version="1.0" xmlns="http://www.w3.org/2000/svg"
 width="260.000000pt" height="260.000000pt" viewBox="0 0 260.000000 260.000000"
 preserveAspectRatio="xMidYMid meet">
<metadata>
Created by potrace 1.14, written by Peter Selinger 2001-2017
</metadata>
<g transform="translate(0.000000,260.000000) scale(0.100000,-0.100000)"
fill="#000000" stroke="none">
<path d="M440 1921 l0 -391 168 0 c251 0 341 26 426 121 21 23 50 67 65 98 24
51 26 67 26 176 0 111 -2 124 -28 177 -36 73 -119 150 -195 179 -50 20 -80 23
-259 27 l-203 4 0 -391z m354 227 c55 -17 109 -73 125 -131 19 -65 11 -182
-15 -232 -11 -22 -39 -53 -62 -69 -35 -25 -53 -30 -122 -34 l-80 -5 0 242 0
241 56 0 c31 0 75 -6 98 -12z"/>
<path d="M1735 2298 c-9 -23 -255 -763 -255 -766 0 -1 44 -1 97 0 l97 3 23 78
24 77 122 0 122 0 24 -80 24 -80 99 0 c90 0 99 2 94 18 -3 9 -61 184 -129 387
l-124 370 -107 3 c-79 2 -108 -1 -111 -10z m180 -445 c5 -23 4 -23 -74 -23
l-79 0 34 113 c20 61 38 119 41 127 5 12 56 -132 78 -217z"/>
<path d="M440 630 l0 -390 90 0 90 0 2 257 3 258 71 -165 71 -165 68 0 68 0
67 157 c36 87 69 160 73 164 4 4 7 -108 7 -249 l0 -257 95 0 95 0 0 390 0 390
-114 0 -113 0 -84 -190 c-46 -104 -86 -190 -89 -190 -3 0 -43 86 -89 190 l-85
190 -113 0 -113 0 0 -390z"/>
</g>
</svg>
